name analog
datacolumns 19
datarows 72
range 0.6515 0.687
endheader
time	ground_force_vx	ground_force_vy	ground_force_vz	ground_force_px	ground_force_py	ground_force_pz	l_ground_force_vx	l_ground_force_vy	l_ground_force_vz	l_ground_force_px	l_ground_force_py	l_ground_force_pz	ground_torque_x	ground_torque_y	ground_torque_z	l_ground_torque_x	l_ground_torque_y	l_ground_torque_z
0.6515	-0.0	-0.0	-0.0	-12.491777420043944	-10.29110622406006	-778.9429321289062	-0.0	-0.0	-0.0	-0.0	-0.0	-0.0	-0.0	-0.0	-0.0	-0.0	-0.0	-0.0
0.652	-0.0	-0.0	-0.0	-12.935523986816406	-9.934693336486816	-774.8768310546875	-0.0	-0.0	-0.0	-0.0	-0.0	-0.0	-0.0	-0.0	-0.0	-0.0	-0.0	-0.0
0.6525	-0.0	-0.0	-0.0	-13.42294216156006	-9.397862434387209	-776.9873046875	-0.0	-0.0	-0.0	-0.0	-0.0	-0.0	-0.0	-0.0	-0.0	-0.0	-0.0	-0.0
0.653	-0.0	-0.0	-0.0	-13.342243194580078	-9.31096649169922	-776.092041015625	-0.0	-0.0	-0.0	-0.0	-0.0	-0.0	-0.0	-0.0	-0.0	-0.0	-0.0	-0.0
0.6535	-0.0	-0.0	-0.0	-13.960427284240724	-9.76079559326172	-776.6427001953125	-0.0	-0.0	-0.0	-0.0	-0.0	-0.0	-0.0	-0.0	-0.0	-0.0	-0.0	-0.0
0.654	-0.0	-0.0	-0.0	-14.13888454437256	-9.8973970413208	-774.3353881835938	-0.0	-0.0	-0.0	-0.0	-0.0	-0.0	-0.0	-0.0	-0.0	-0.0	-0.0	-0.0
0.6545	-0.0	-0.0	-0.0	-15.34611988067627	-8.91112995147705	-773.8172607421875	-0.0	-0.0	-0.0	-0.0	-0.0	-0.0	-0.0	-0.0	-0.0	-0.0	-0.0	-0.0
0.655	-0.0	-0.0	-0.0	-15.965003967285156	-8.956686973571777	-775.22998046875	-0.0	-0.0	-0.0	-0.0	-0.0	-0.0	-0.0	-0.0	-0.0	-0.0	-0.0	-0.0
0.6555	-0.0	-0.0	-0.0	-16.64394187927246	-8.516364097595215	-773.4500732421875	-0.0	-0.0	-0.0	-0.0	-0.0	-0.0	-0.0	-0.0	-0.0	-0.0	-0.0	-0.0
0.656	-0.0	-0.0	-0.0	-16.456756591796875	-7.666934490203857	-775.0772705078125	-0.0	-0.0	-0.0	-0.0	-0.0	-0.0	-0.0	-0.0	-0.0	-0.0	-0.0	-0.0
0.6565	-0.0	-0.0	-0.0	-16.062837600708008	-6.814357280731201	-773.630859375	-0.0	-0.0	-0.0	-0.0	-0.0	-0.0	-0.0	-0.0	-0.0	-0.0	-0.0	-0.0
0.657	-0.0	-0.0	-0.0	-15.16263484954834	-6.239128112792969	-775.4221801757812	-0.0	-0.0	-0.0	-0.0	-0.0	-0.0	-0.0	-0.0	-0.0	-0.0	-0.0	-0.0
0.6575	-0.0	-0.0	-0.0	-14.946572303771973	-5.521515369415283	-776.283447265625	-0.0	-0.0	-0.0	-0.0	-0.0	-0.0	-0.0	-0.0	-0.0	-0.0	-0.0	-0.0
0.658	-0.0	-0.0	-0.0	-14.181568145751951	-5.125723361968994	-779.29443359375	-0.0	-0.0	-0.0	-0.0	-0.0	-0.0	-0.0	-0.0	-0.0	-0.0	-0.0	-0.0
0.6585	-0.0	-0.0	-0.0	-13.026113510131836	-5.661847114562988	-781.5762939453125	-0.0	-0.0	-0.0	-0.0	-0.0	-0.0	-0.0	-0.0	-0.0	-0.0	-0.0	-0.0
0.659	-0.0	-0.0	-0.0	-12.802366256713867	-6.015644073486328	-783.03125	-0.0	-0.0	-0.0	-0.0	-0.0	-0.0	-0.0	-0.0	-0.0	-0.0	-0.0	-0.0
0.6595	-0.0	-0.0	-0.0	-12.304777145385742	-6.153758049011231	-781.4031982421875	-0.0	-0.0	-0.0	-0.0	-0.0	-0.0	-0.0	-0.0	-0.0	-0.0	-0.0	-0.0
0.66	-0.0	-0.0	-0.0	-12.622695922851562	-5.167201995849609	-781.0410766601562	-0.0	-0.0	-0.0	-0.0	-0.0	-0.0	-0.0	-0.0	-0.0	-0.0	-0.0	-0.0
0.6605	-0.0	-0.0	-0.0	-13.42562770843506	-4.762383460998535	-778.2210083007812	-0.0	-0.0	-0.0	-0.0	-0.0	-0.0	-0.0	-0.0	-0.0	-0.0	-0.0	-0.0
0.661	-0.0	-0.0	-0.0	-13.51274871826172	-4.142979145050049	-774.8768310546875	-0.0	-0.0	-0.0	-0.0	-0.0	-0.0	-0.0	-0.0	-0.0	-0.0	-0.0	-0.0
0.6615	-0.0	-0.0	-0.0	-12.57769775390625	-3.873729944229126	-770.8289184570312	-0.0	-0.0	-0.0	-0.0	-0.0	-0.0	-0.0	-0.0	-0.0	-0.0	-0.0	-0.0
0.662	-0.0	-0.0	-0.0	-11.59463119506836	-3.1664061546325684	-767.634765625	-0.0	-0.0	-0.0	-0.0	-0.0	-0.0	-0.0	-0.0	-0.0	-0.0	-0.0	-0.0
0.6625	-0.0	-0.0	-0.0	-10.483525276184082	-2.986298084259033	-763.9349975585938	-0.0	-0.0	-0.0	-0.0	-0.0	-0.0	-0.0	-0.0	-0.0	-0.0	-0.0	-0.0
0.663	-0.0	-0.0	-0.0	-9.186320304870604	-2.048425912857056	-760.2057495117188	-0.0	-0.0	-0.0	-0.0	-0.0	-0.0	-0.0	-0.0	-0.0	-0.0	-0.0	-0.0
0.6635	-0.0	-0.0	-0.0	-8.161689758300781	-1.5587111711502075	-753.864013671875	-0.0	-0.0	-0.0	-0.0	-0.0	-0.0	-0.0	-0.0	-0.0	-0.0	-0.0	-0.0
0.664	-0.0	-0.0	-0.0	-7.628503322601318	-0.174914926290512	-750.8526000976562	-0.0	-0.0	-0.0	-0.0	-0.0	-0.0	-0.0	-0.0	-0.0	-0.0	-0.0	-0.0
0.6645	-0.0	-0.0	-0.0	-7.448182106018066	-0.2679875791072845	-743.6073608398438	-0.0	-0.0	-0.0	-0.0	-0.0	-0.0	-0.0	-0.0	-0.0	-0.0	-0.0	-0.0
0.665	-0.0	-0.0	-0.0	-7.315261840820312	-0.0891304016113281	-736.0186767578125	-0.0	-0.0	-0.0	-0.0	-0.0	-0.0	-0.0	-0.0	-0.0	-0.0	-0.0	-0.0
0.6655	-0.0	-0.0	-0.0	-6.380206108093262	-0.7111541032791138	-726.6668090820312	-0.0	-0.0	-0.0	-0.0	-0.0	-0.0	-0.0	-0.0	-0.0	-0.0	-0.0	-0.0
0.666	-0.0	-0.0	-0.0	-6.377151966094971	-0.8473380208015442	-720.1339111328125	-0.0	-0.0	-0.0	-0.0	-0.0	-0.0	-0.0	-0.0	-0.0	-0.0	-0.0	-0.0
0.6665	-0.0	-0.0	-0.0	-6.334273338317871	-0.3575015962123871	-710.0610961914062	-0.0	-0.0	-0.0	-0.0	-0.0	-0.0	-0.0	-0.0	-0.0	-0.0	-0.0	-0.0
0.667	-0.0	-0.0	-0.0	-5.709737300872803	-0.6247062683105469	-698.5888671875	-0.0	-0.0	-0.0	-0.0	-0.0	-0.0	-0.0	-0.0	-0.0	-0.0	-0.0	-0.0
0.6675	-0.0	-0.0	-0.0	-5.263015270233154	-1.2472188472747805	-689.4048461914062	-0.0	-0.0	-0.0	-0.0	-0.0	-0.0	-0.0	-0.0	-0.0	-0.0	-0.0	-0.0
0.668	-0.0	-0.0	-0.0	-4.906836986541748	-1.1145830154418943	-680.3988647460938	-0.0	-0.0	-0.0	-0.0	-0.0	-0.0	-0.0	-0.0	-0.0	-0.0	-0.0	-0.0
0.6685	-0.0	-0.0	-0.0	-3.389885902404785	-1.5151602029800415	-672.4533081054688	-0.0	-0.0	-0.0	-0.0	-0.0	-0.0	-0.0	-0.0	-0.0	-0.0	-0.0	-0.0
0.669	-0.0	-0.0	-0.0	-2.676299333572388	-1.7380402088165283	-663.6251220703125	-0.0	-0.0	-0.0	-0.0	-0.0	-0.0	-0.0	-0.0	-0.0	-0.0	-0.0	-0.0
0.6695	-0.0	-0.0	-0.0	-1.8289167881011963	-2.0054001808166504	-654.7969360351562	-0.0	-0.0	-0.0	-0.0	-0.0	-0.0	-0.0	-0.0	-0.0	-0.0	-0.0	-0.0
0.67	-0.0	-0.0	-0.0	-1.9620695114135744	-2.228260040283203	-648.79150390625	-0.0	-0.0	-0.0	-0.0	-0.0	-0.0	-0.0	-0.0	-0.0	-0.0	-0.0	-0.0
0.6705	-0.0	-0.0	-0.0	-2.051457643508911	-2.584397792816162	-640.669921875	-0.0	-0.0	-0.0	-0.0	-0.0	-0.0	-0.0	-0.0	-0.0	-0.0	-0.0	-0.0
0.671	-0.0	-0.0	-0.0	-2.631577491760254	-3.16320276260376	-634.8372802734375	-0.0	-0.0	-0.0	-0.0	-0.0	-0.0	-0.0	-0.0	-0.0	-0.0	-0.0	-0.0
0.6715	-0.0	-0.0	-0.0	-3.0775938034057617	-3.965121507644653	-631.3084716796875	-0.0	-0.0	-0.0	-0.0	-0.0	-0.0	-0.0	-0.0	-0.0	-0.0	-0.0	-0.0
0.672	-0.0	-0.0	-0.0	-3.0339221954345703	-5.037204742431641	-628.4844360351562	-0.0	-0.0	-0.0	-0.0	-0.0	-0.0	-0.0	-0.0	-0.0	-0.0	-0.0	-0.0
0.6725	-0.0	-0.0	-0.0	-2.764615297317505	-5.926489353179932	-624.5977783203125	-0.0	-0.0	-0.0	-0.0	-0.0	-0.0	-0.0	-0.0	-0.0	-0.0	-0.0	-0.0
0.673	-0.0	-0.0	-0.0	-2.9428906440734863	-6.684780120849609	-625.1285400390625	-0.0	-0.0	-0.0	-0.0	-0.0	-0.0	-0.0	-0.0	-0.0	-0.0	-0.0	-0.0
0.6735	-0.0	-0.0	-0.0	-2.274574518203736	-7.351206302642822	-626.5388793945312	-0.0	-0.0	-0.0	-0.0	-0.0	-0.0	-0.0	-0.0	-0.0	-0.0	-0.0	-0.0
0.674	-0.0	-0.0	-0.0	-1.38243305683136	-8.422492980957031	-627.9512939453125	-0.0	-0.0	-0.0	-0.0	-0.0	-0.0	-0.0	-0.0	-0.0	-0.0	-0.0	-0.0
0.6745	-0.0	-0.0	-0.0	-0.8036271333694458	-9.537684440612791	-633.4238891601562	-0.0	-0.0	-0.0	-0.0	-0.0	-0.0	-0.0	-0.0	-0.0	-0.0	-0.0	-0.0
0.675	-0.0	-0.0	-0.0	-0.2265868186950683	-10.11590576171875	-640.4840087890625	-0.0	-0.0	-0.0	-0.0	-0.0	-0.0	-0.0	-0.0	-0.0	-0.0	-0.0	-0.0
0.6755	-0.0	-0.0	-0.0	0.1767216175794601	-10.964736938476562	-647.37548828125	-0.0	-0.0	-0.0	-0.0	-0.0	-0.0	-0.0	-0.0	-0.0	-0.0	-0.0	-0.0
0.676	-0.0	-0.0	-0.0	0.2657863795757293	-11.22858715057373	-656.0116577148438	-0.0	-0.0	-0.0	-0.0	-0.0	-0.0	-0.0	-0.0	-0.0	-0.0	-0.0	-0.0
0.6765	-0.0	-0.0	-0.0	-0.6214872598648071	-12.121734619140623	-665.5578002929688	-0.0	-0.0	-0.0	-0.0	-0.0	-0.0	-0.0	-0.0	-0.0	-0.0	-0.0	-0.0
0.677	-0.0	-0.0	-0.0	-1.114607810974121	-11.272379875183104	-673.6845092773438	-0.0	-0.0	-0.0	-0.0	-0.0	-0.0	-0.0	-0.0	-0.0	-0.0	-0.0	-0.0
0.6775	-0.0	-0.0	-0.0	-1.872300624847412	-10.695648193359377	-680.5466918945312	-0.0	-0.0	-0.0	-0.0	-0.0	-0.0	-0.0	-0.0	-0.0	-0.0	-0.0	-0.0
0.678	-0.0	-0.0	-0.0	-3.211578369140625	-9.803152084350586	-691.6864013671875	-0.0	-0.0	-0.0	-0.0	-0.0	-0.0	-0.0	-0.0	-0.0	-0.0	-0.0	-0.0
0.6785	-0.0	-0.0	-0.0	-4.102438926696777	-8.689592361450195	-697.8687744140625	-0.0	-0.0	-0.0	-0.0	-0.0	-0.0	-0.0	-0.0	-0.0	-0.0	-0.0	-0.0
0.679	-0.0	-0.0	-0.0	-5.483153343200684	-8.336982727050781	-709.0113525390625	-0.0	-0.0	-0.0	-0.0	-0.0	-0.0	-0.0	-0.0	-0.0	-0.0	-0.0	-0.0
0.6795	-0.0	-0.0	-0.0	-6.064924716949463	-8.1986083984375	-719.2481689453125	-0.0	-0.0	-0.0	-0.0	-0.0	-0.0	-0.0	-0.0	-0.0	-0.0	-0.0	-0.0
0.68	-0.0	-0.0	-0.0	-6.383572578430176	-7.40212345123291	-730.5327758789062	-0.0	-0.0	-0.0	-0.0	-0.0	-0.0	-0.0	-0.0	-0.0	-0.0	-0.0	-0.0
0.6805	-0.0	-0.0	-0.0	-7.1368408203125	-7.669733047485352	-741.6659545898438	-0.0	-0.0	-0.0	-0.0	-0.0	-0.0	-0.0	-0.0	-0.0	-0.0	-0.0	-0.0
0.681	-0.0	-0.0	-0.0	-7.665782451629639	-6.822422981262207	-754.2188720703125	-0.0	-0.0	-0.0	-0.0	-0.0	-0.0	-0.0	-0.0	-0.0	-0.0	-0.0	-0.0
0.6815	-0.0	-0.0	-0.0	-8.698841094970703	-6.948910713195801	-763.9152221679688	-0.0	-0.0	-0.0	-0.0	-0.0	-0.0	-0.0	-0.0	-0.0	-0.0	-0.0	-0.0
0.682	-0.0	-0.0	-0.0	-9.590982437133787	-6.859634399414063	-773.8306884765625	-0.0	-0.0	-0.0	-0.0	-0.0	-0.0	-0.0	-0.0	-0.0	-0.0	-0.0	-0.0
0.6825	-0.0	-0.0	-0.0	-10.42696475982666	-7.08675479888916	-783.3319702148438	-0.0	-0.0	-0.0	-0.0	-0.0	-0.0	-0.0	-0.0	-0.0	-0.0	-0.0	-0.0
0.683	-0.0	-0.0	-0.0	-10.701581001281738	-7.354177474975586	-792.3555297851562	-0.0	-0.0	-0.0	-0.0	-0.0	-0.0	-0.0	-0.0	-0.0	-0.0	-0.0	-0.0
0.6835	-0.0	-0.0	-0.0	-11.062103271484377	-6.999587059020996	-801.6958618164062	-0.0	-0.0	-0.0	-0.0	-0.0	-0.0	-0.0	-0.0	-0.0	-0.0	-0.0	-0.0
0.684	-0.0	-0.0	-0.0	-11.466512680053713	-7.443375110626221	-808.9390869140625	-0.0	-0.0	-0.0	-0.0	-0.0	-0.0	-0.0	-0.0	-0.0	-0.0	-0.0	-0.0
0.6845	-0.0	-0.0	-0.0	-12.082904815673828	-8.334715843200684	-817.5872802734375	-0.0	-0.0	-0.0	-0.0	-0.0	-0.0	-0.0	-0.0	-0.0	-0.0	-0.0	-0.0
0.685	-0.0	-0.0	-0.0	-12.62013816833496	-8.6498441696167	-827.1141967773438	-0.0	-0.0	-0.0	-0.0	-0.0	-0.0	-0.0	-0.0	-0.0	-0.0	-0.0	-0.0
0.6855	-0.0	-0.0	-0.0	-13.03342342376709	-9.352181434631348	-836.83837890625	-0.0	-0.0	-0.0	-0.0	-0.0	-0.0	-0.0	-0.0	-0.0	-0.0	-0.0	-0.0
0.686	-0.0	-0.0	-0.0	-12.816301345825195	-10.06949234008789	-845.1329345703125	-0.0	-0.0	-0.0	-0.0	-0.0	-0.0	-0.0	-0.0	-0.0	-0.0	-0.0	-0.0
0.6865	-0.0	-0.0	-0.0	-11.821540832519531	-11.314971923828123	-853.64501953125	-0.0	-0.0	-0.0	-0.0	-0.0	-0.0	-0.0	-0.0	-0.0	-0.0	-0.0	-0.0
0.687	-0.0	-0.0	-0.0	-10.57973861694336	-11.683184623718262	-861.0151977539062	-0.0	-0.0	-0.0	-0.0	-0.0	-0.0	-0.0	-0.0	-0.0	-0.0	-0.0	-0.0
